{
  "accessors": [
    {
      "bufferView": 2,
      "componentType": 5126,
      "count": 184,
      "max": [
        22.888172149658203,
        64.52609252929688,
        40.59086227416992
      ],
      "min": [
        -28.51224136352539,
        -3.606015682220459,
        -29.618309020996094
      ],
      "type": "VEC3"
    },
    {
      "bufferView": 2,
      "byteOffset": 2208,
      "componentType": 5126,
      "count": 184,
      "max": [
        0.9307578802108765,
        0.21710628271102905,
        0.9841715693473816
      ],
      "min": [
        -0.988749086856842,
        -0.8129141926765442,
        -0.979597270488739
      ],
      "type": "VEC3"
    },
    {
      "bufferView": 1,
      "componentType": 5126,
      "count": 184,
      "max": [
        0.7125212550163269,
        0.9997413158416748
      ],
      "min": [
        0.15415392816066742,
        -0.0005244690692052245
      ],
      "type": "VEC2"
    },
    {
      "bufferView": 1,
      "byteOffset": 1472,
      "componentType": 5126,
      "count": 184,
      "max": [
        0.7125212550163269,
        0.9997413158416748
      ],
      "min": [
        0.15415392816066742,
        -0.0005244690692052245
      ],
      "type": "VEC2"
    },
    {
      "bufferView": 0,
      "componentType": 5125,
      "count": 414,
      "type": "SCALAR"
    },
    {
      "bufferView": 2,
      "byteOffset": 4416,
      "componentType": 5126,
      "count": 1280,
      "max": [
        65.38780975341797,
        89.01519012451172,
        48.793853759765625
      ],
      "min": [
        -46.434326171875,
        -5.5403265953063965,
        -70.8309097290039
      ],
      "type": "VEC3"
    },
    {
      "bufferView": 2,
      "byteOffset": 19776,
      "componentType": 5126,
      "count": 1280,
      "max": [
        0.9997295141220093,
        0.6020300984382629,
        0.9994816184043884
      ],
      "min": [
        -0.9997295141220093,
        -0.7722612619400024,
        -0.9980459213256836
      ],
      "type": "VEC3"
    },
    {
      "bufferView": 1,
      "byteOffset": 2944,
      "componentType": 5126,
      "count": 1280,
      "max": [
        0.8433802127838135,
        0.9997413158416748
      ],
      "min": [
        -0.0004975944757461548,
        -0.0005244690692052245
      ],
      "type": "VEC2"
    },
    {
      "bufferView": 1,
      "byteOffset": 13184,
      "componentType": 5126,
      "count": 1280,
      "max": [
        0.8433802127838135,
        0.9997413158416748
      ],
      "min": [
        -0.0004975944757461548,
        -0.0005244690692052245
      ],
      "type": "VEC2"
    },
    {
      "bufferView": 0,
      "byteOffset": 1656,
      "componentType": 5125,
      "count": 2880,
      "type": "SCALAR"
    },
    {
      "bufferView": 2,
      "byteOffset": 35136,
      "componentType": 5126,
      "count": 424,
      "max": [
        76.24835968017578,
        82.99494934082031,
        50.17298889160156
      ],
      "min": [
        -46.22920227050781,
        -5.5403265953063965,
        -62.96089172363281
      ],
      "type": "VEC3"
    },
    {
      "bufferView": 2,
      "byteOffset": 40224,
      "componentType": 5126,
      "count": 424,
      "max": [
        0.9997047781944275,
        0.5667773485183716,
        0.9999808669090271
      ],
      "min": [
        -0.9985963106155396,
        -0.9026057720184326,
        -0.9972786903381348
      ],
      "type": "VEC3"
    },
    {
      "bufferView": 1,
      "byteOffset": 23424,
      "componentType": 5126,
      "count": 424,
      "max": [
        0.8433802127838135,
        0.9997413158416748
      ],
      "min": [
        -0.0004975944757461548,
        -0.0005244690692052245
      ],
      "type": "VEC2"
    },
    {
      "bufferView": 1,
      "byteOffset": 26816,
      "componentType": 5126,
      "count": 424,
      "max": [
        0.8433802127838135,
        0.9997413158416748
      ],
      "min": [
        -0.0004975944757461548,
        -0.0005244690692052245
      ],
      "type": "VEC2"
    },
    {
      "bufferView": 0,
      "byteOffset": 13176,
      "componentType": 5125,
      "count": 954,
      "type": "SCALAR"
    },
    {
      "bufferView": 2,
      "byteOffset": 45312,
      "componentType": 5126,
      "count": 184,
      "max": [
        45.53691482543945,
        59.75791549682617,
        50.17298889160156
      ],
      "min": [
        -20.708545684814453,
        -5.675975799560547,
        -41.10009002685547
      ],
      "type": "VEC3"
    },
    {
      "bufferView": 2,
      "byteOffset": 47520,
      "componentType": 5126,
      "count": 184,
      "max": [
        0.7928181886672974,
        -0.10234048217535019,
        0.9602776765823364
      ],
      "min": [
        -0.968440592288971,
        -0.6982443928718567,
        -0.9795972108840942
      ],
      "type": "VEC3"
    },
    {
      "bufferView": 1,
      "byteOffset": 30208,
      "componentType": 5126,
      "count": 184,
      "max": [
        0.7125212550163269,
        0.9997413158416748
      ],
      "min": [
        0.15415392816066742,
        -0.0005244690692052245
      ],
      "type": "VEC2"
    },
    {
      "bufferView": 1,
      "byteOffset": 31680,
      "componentType": 5126,
      "count": 184,
      "max": [
        0.7125212550163269,
        0.9997413158416748
      ],
      "min": [
        0.15415392816066742,
        -0.0005244690692052245
      ],
      "type": "VEC2"
    },
    {
      "bufferView": 0,
      "byteOffset": 16992,
      "componentType": 5125,
      "count": 414,
      "type": "SCALAR"
    }
  ],
  "asset": {
    "extras": {
      "author": "RBG_illustrations (https://sketchfab.com/RBG_illustrations)",
      "license": "CC-BY-4.0 (http://creativecommons.org/licenses/by/4.0/)",
      "source": "https://sketchfab.com/3d-models/grass-variations-c84573687bf14f89938002df4ca0e696",
      "title": "Grass Variations"
    },
    "generator": "Sketchfab-12.67.0",
    "version": "2.0"
  },
  "bufferViews": [
    {
      "buffer": 0,
      "byteLength": 18648,
      "name": "floatBufferViews",
      "target": 34963
    },
    {
      "buffer": 0,
      "byteLength": 33152,
      "byteOffset": 18648,
      "byteStride": 8,
      "name": "floatBufferViews",
      "target": 34962
    },
    {
      "buffer": 0,
      "byteLength": 49728,
      "byteOffset": 51800,
      "byteStride": 12,
      "name": "floatBufferViews",
      "target": 34962
    }
  ],
  "buffers": [
    {
      "byteLength": 101528,
      "uri": "scene.bin"
    }
  ],
  "images": [
    {
      "uri": "textures/grass_baseColor.png"
    }
  ],
  "materials": [
    {
      "alphaMode": "BLEND",
      "doubleSided": true,
      "name": "grass",
      "pbrMetallicRoughness": {
        "baseColorTexture": {
          "index": 0
        },
        "metallicFactor": 0.0,
        "roughnessFactor": 0.6
      }
    },
    {
      "alphaMode": "BLEND",
      "doubleSided": true,
      "name": "grass1",
      "pbrMetallicRoughness": {
        "baseColorTexture": {
          "index": 0
        },
        "metallicFactor": 0.0,
        "roughnessFactor": 0.6
      }
    },
    {
      "alphaMode": "BLEND",
      "doubleSided": true,
      "name": "grass2",
      "pbrMetallicRoughness": {
        "baseColorTexture": {
          "index": 0
        },
        "metallicFactor": 0.0,
        "roughnessFactor": 0.6
      }
    },
    {
      "alphaMode": "BLEND",
      "doubleSided": true,
      "name": "grass3",
      "pbrMetallicRoughness": {
        "baseColorTexture": {
          "index": 0
        },
        "metallicFactor": 0.0,
        "roughnessFactor": 0.6
      }
    }
  ],
  "meshes": [
    {
      "name": "grass_varien_4_grass_0",
      "primitives": [
        {
          "attributes": {
            "NORMAL": 1,
            "POSITION": 0,
            "TEXCOORD_0": 2,
            "TEXCOORD_1": 3
          },
          "indices": 4,
          "material": 0,
          "mode": 4
        }
      ]
    },
    {
      "name": "grass_variant_1_grass1_0",
      "primitives": [
        {
          "attributes": {
            "NORMAL": 6,
            "POSITION": 5,
            "TEXCOORD_0": 7,
            "TEXCOORD_1": 8
          },
          "indices": 9,
          "material": 1,
          "mode": 4
        }
      ]
    },
    {
      "name": "grass_varient_2_grass2_0",
      "primitives": [
        {
          "attributes": {
            "NORMAL": 11,
            "POSITION": 10,
            "TEXCOORD_0": 12,
            "TEXCOORD_1": 13
          },
          "indices": 14,
          "material": 2,
          "mode": 4
        }
      ]
    },
    {
      "name": "grass_varient_3_grass3_0",
      "primitives": [
        {
          "attributes": {
            "NORMAL": 16,
            "POSITION": 15,
            "TEXCOORD_0": 17,
            "TEXCOORD_1": 18
          },
          "indices": 19,
          "material": 3,
          "mode": 4
        }
      ]
    }
  ],
  "nodes": [
    {
      "children": [
        1
      ],
      "matrix": [
        1.0,
        0.0,
        0.0,
        0.0,
        0.0,
        2.220446049250313e-16,
        -1.0,
        0.0,
        0.0,
        1.0,
        2.220446049250313e-16,
        0.0,
        0.0,
        0.0,
        0.0,
        1.0
      ],
      "name": "Sketchfab_model"
    },
    {
      "children": [
        2
      ],
      "matrix": [
        1.0,
        0.0,
        0.0,
        0.0,
        0.0,
        0.0,
        1.0,
        0.0,
        0.0,
        -1.0,
        0.0,
        0.0,
        0.0,
        0.0,
        0.0,
        1.0
      ],
      "name": "grass variations.fbx"
    },
    {
      "children": [
        3,
        5,
        7,
        9
      ],
      "name": "RootNode"
    },
    {
      "children": [
        4
      ],
      "matrix": [
        1.0,
        0.0,
        0.0,
        0.0,
        0.0,
        1.0,
        0.0,
        0.0,
        0.0,
        0.0,
        1.0,
        0.0,
        0.0,
        0.0,
        164.63417053222656,
        1.0
      ],
      "name": "grass_varien_4"
    },
    {
      "mesh": 0,
      "name": "grass_varien_4_grass_0"
    },
    {
      "children": [
        6
      ],
      "matrix": [
        1.0,
        0.0,
        0.0,
        0.0,
        0.0,
        1.0,
        0.0,
        0.0,
        0.0,
        0.0,
        1.0,
        0.0,
        0.0,
        0.0,
        -116.8966064453125,
        1.0
      ],
      "name": "grass_variant_1"
    },
    {
      "mesh": 1,
      "name": "grass_variant_1_grass1_0"
    },
    {
      "children": [
        8
      ],
      "name": "grass_varient_2"
    },
    {
      "mesh": 2,
      "name": "grass_varient_2_grass2_0"
    },
    {
      "children": [
        10
      ],
      "matrix": [
        1.0,
        0.0,
        0.0,
        0.0,
        0.0,
        1.0,
        0.0,
        0.0,
        0.0,
        0.0,
        1.0,
        0.0,
        0.0,
        0.0,
        87.6446533203125,
        1.0
      ],
      "name": "grass_varient_3"
    },
    {
      "mesh": 3,
      "name": "grass_varient_3_grass3_0"
    }
  ],
  "samplers": [
    {
      "magFilter": 9729,
      "minFilter": 9987,
      "wrapS": 10497,
      "wrapT": 10497
    }
  ],
  "scene": 0,
  "scenes": [
    {
      "name": "Sketchfab_Scene",
      "nodes": [
        0
      ]
    }
  ],
  "textures": [
    {
      "sampler": 0,
      "source": 0
    }
  ]
}
